<svg xmlns="http://www.w3.org/2000/svg" width="1200" height="630" viewBox="0 0 1200 630">
  <defs>
    <radialGradient id="background" cx="50%" cy="48%" r="72%">
      <stop offset="0" stop-color="#111a3d"/>
      <stop offset=".52" stop-color="#080b1d"/>
      <stop offset="1" stop-color="#05060f"/>
    </radialGradient>
    <filter id="logoGlow" x="-30%" y="-70%" width="160%" height="240%">
      <feGaussianBlur stdDeviation="13" result="blur"/>
      <feMerge><feMergeNode in="blur"/><feMergeNode in="SourceGraphic"/></feMerge>
    </filter>
    <pattern id="stars" width="117" height="83" patternUnits="userSpaceOnUse">
      <circle cx="19" cy="23" r="1" fill="#d9dfff" opacity=".3"/>
      <circle cx="87" cy="61" r="1.4" fill="#8fa4ff" opacity=".24"/>
    </pattern>
  </defs>
  <rect width="1200" height="630" fill="url(#background)"/>
  <rect width="1200" height="630" fill="url(#stars)"/>
  <g transform="translate(600 300)" fill="none">
    <circle r="222" stroke="#536dff" stroke-width="2" opacity=".26"/>
    <circle r="184" stroke="#aebdff" opacity=".16"/>
    <circle r="132" stroke="#aebdff" opacity=".13"/>
    <path d="M0-170 147 85-147 85Z" stroke="#8fa4ff" stroke-width="1.5" opacity=".2"/>
    <path d="M0-123 107 61.5-107 61.5Z" transform="rotate(180)" stroke="#8fa4ff" opacity=".17"/>
    <g stroke="#8fa4ff" opacity=".24">
      <path d="M0-222v26M111-192 98-170M192-111 170-98M222 0h-26M192 111l-22-13M111 192l-13-22M0 222v-26M-111 192l13-22M-192 111l22-13M-222 0h26M-192-111l22 13M-111-192l13 22"/>
    </g>
  </g>
  <text x="600" y="162" text-anchor="middle" fill="#8fa4ff" font-family="Georgia, serif" font-size="18" letter-spacing="10">WORDS BECOME SPELLS</text>
  <text x="600" y="340" text-anchor="middle" fill="#eef1ff" stroke="#536dff" stroke-width="2" paint-order="stroke" filter="url(#logoGlow)" font-family="Georgia, 'Times New Roman', serif" font-size="142" font-weight="700" letter-spacing="22">INCANT</text>
  <line x1="407" y1="389" x2="793" y2="389" stroke="#aebdff" opacity=".4"/>
  <rect x="589" y="378" width="22" height="22" transform="rotate(45 600 389)" fill="#080b1d" stroke="#c7d0ff" opacity=".9"/>
  <text x="600" y="455" text-anchor="middle" fill="#c8cee9" font-family="'Noto Serif KR', serif" font-size="25" letter-spacing="2">정해진 스킬은 없다. 당신의 문장이 주문이 된다</text>
</svg>
